#!OML:ASF E:\emotionWalksFemale\Project 1\Capture day 1\Session 1\Female1.ASF
:FULLY-SPECIFIED
:DEGREES
1
root 8.18998 15.1248 41.9545 -177.467 -0.837854 -176.834
lowerback 6.47086 2.37021 -6.94546
upperback -2.01961 1.78443 -5.54878
thorax -5.83014 0.821635 -2.11107
lowerneck -5.78021 -1.81927 -8.50388
upperneck 25.349 -7.1734 13.7328
head 9.6536 -3.74612 5.43351
rclavicle -1.46107e-014 5.08889e-014
rhumerus -36.4452 56.4948 -126.114
rradius 37.3894
rwrist 13.5968
rhand 4.46259 -55.307
rfingers 7.12502
rthumb 29.8573 -82.92
lclavicle -1.46107e-014 5.08889e-014
lhumerus -57.7196 -65.7759 144.467
lradius 103.623
lwrist 31.1298
lhand 11.411 -31.8967
lfingers 7.12502
lthumb 36.4634 -5.69538
rfemur -10.3734 10.2802 25.6035
rtibia 28.8974
rfoot -21.7743 -21.546
rtoes 6.65734
lfemur -12.8191 -23.2241 -20.9642
ltibia 33.5004
lfoot -30.2882 19.5036
ltoes -12.5281
2
root 8.1923 15.1239 41.9563 -177.511 -0.857401 -176.9
lowerback 6.54564 2.34217 -7.08826
upperback -1.98649 1.72706 -5.53297
thorax -5.8431 0.797455 -2.01047
lowerneck -5.13074 -1.73082 -8.78901
upperneck 24.6008 -6.96529 14.0579
head 9.25247 -3.66111 5.61298
rclavicle 1.81888e-014 3.18055e-015
rhumerus -36.6234 56.6719 -126.266
rradius 37.4414
rwrist 13.6394
rhand 4.54546 -55.4009
rfingers 7.12502
rthumb 29.9363 -82.9997
lclavicle 1.81888e-014 3.18055e-015
lhumerus -57.1726 -65.6885 143.928
lradius 103.559
lwrist 30.8397
lhand 11.9792 -31.7326
lfingers 7.12502
lthumb 37.0011 -5.66841
rfemur -10.3775 10.226 25.5477
rtibia 28.9546
rfoot -21.729 -21.4012
rtoes 6.6195
lfemur -12.7948 -22.8219 -21.0154
ltibia 33.4629
lfoot -30.0617 19.2394
ltoes -14.6961
3
root 8.19317 15.1226 41.9574 -177.616 -0.905824 -176.952
lowerback 6.66934 2.31017 -7.19993
upperback -1.93963 1.66864 -5.48972
thorax -5.86836 0.774157 -1.8995
lowerneck -5.53472 -1.80203 -8.754
upperneck 25.0624 -7.05324 13.7504
head 9.49515 -3.71099 5.49379
rclavicle 1.42131e-014 3.18055e-014
rhumerus -36.8732 56.9536 -126.452
rradius 37.5304
rwrist 13.4409
rhand 4.54245 -55.6414
rfingers 7.12502
rthumb 29.9335 -83.2407
lclavicle 1.42131e-014 3.18055e-014
lhumerus -56.6633 -65.5646 143.482
lradius 103.505
lwrist 30.6827
lhand 12.2181 -31.8806
lfingers 7.12502
lthumb 37.227 -5.87518
rfemur -10.2766 10.1998 25.5171
rtibia 28.9929
rfoot -21.8107 -21.2829
rtoes 6.98056
lfemur -12.7025 -22.6705 -21.1001
ltibia 33.4587
lfoot -30.0031 19.0904
ltoes -15.9144
4
root 8.19296 15.1212 41.9581 -177.672 -0.917335 -176.984
lowerback 6.73551 2.33459 -7.22704
upperback -1.90814 1.69091 -5.50224
thorax -5.87413 0.784507 -1.90195
lowerneck -5.42543 -1.80606 -8.88978
upperneck 25.0081 -7.06957 13.8577
head 9.46433 -3.7275 5.55563
rclavicle -1.99779e-014 1.74931e-013
rhumerus -36.8361 56.9789 -126.413
rradius 37.5687
rwrist 13.1958
rhand 4.34093 -55.8537
rfingers 7.12502
rthumb 29.7411 -83.4876
lclavicle -1.99779e-014 1.74931e-013
lhumerus -57.1154 -65.6604 143.889
lradius 103.624
lwrist 31.1508
lhand 11.496 -32.1499
lfingers 7.12502
lthumb 36.5439 -5.96885
rfemur -10.2244 10.1926 25.4859
rtibia 29.0175
rfoot -21.8645 -21.3739
rtoes 7.08148
lfemur -12.6524 -22.5839 -21.1513
ltibia 33.4548
lfoot -29.9551 19.0563
ltoes -14.8085
5
root 8.19301 15.1233 41.9587 -177.579 -0.938727 -177.008
lowerback 6.69835 2.34691 -7.22054
upperback -1.91685 1.70027 -5.56501
thorax -5.86085 0.784272 -1.97152
lowerneck -5.61269 -1.83349 -8.9222
upperneck 25.0569 -7.14999 14.0416
head 9.53687 -3.74542 5.61981
rclavicle 9.64106e-015 5.40694e-014
rhumerus -36.6696 56.8476 -126.326
rradius 37.529
rwrist 13.129
rhand 3.89369 -55.8937
rfingers 7.12502
rthumb 29.3142 -83.6029
lclavicle 9.64106e-015 5.40694e-014
lhumerus -57.4148 -65.6934 144.118
lradius 103.668
lwrist 31.0518
lhand 11.1699 -31.8911
lfingers 7.12502
lthumb 36.2351 -5.63266
rfemur -10.3358 10.1844 25.4401
rtibia 29.0188
rfoot -21.8443 -21.5319
rtoes 6.88246
lfemur -12.7864 -22.5425 -21.1227
ltibia 33.4699
lfoot -29.8582 19.017
ltoes -14.1877
6
root 8.19394 15.1258 41.9605 -177.473 -1.00095 -176.992
lowerback 6.68434 2.32602 -7.21011
upperback -1.93518 1.66723 -5.60032
thorax -5.87056 0.765618 -2.01052
lowerneck -5.52487 -1.82117 -8.95414
upperneck 24.8836 -7.15942 14.256
head 9.46789 -3.73812 5.69911
rclavicle -4.42296e-014 6.67916e-014
rhumerus -36.5732 56.7622 -126.287
rradius 37.4927
rwrist 13.0547
rhand 3.67896 -55.5631
rfingers 7.12502
rthumb 29.1092 -83.308
lclavicle -4.42296e-014 6.67916e-014
lhumerus -57.1941 -65.5821 143.903
lradius 103.634
lwrist 30.6203
lhand 11.7941 -31.4853
lfingers 7.12502
lthumb 36.826 -5.37606
rfemur -10.4581 10.2151 25.442
rtibia 29.0101
rfoot -21.9003 -21.4505
rtoes 7.17303
lfemur -12.9622 -22.4553 -21.0304
ltibia 33.5003
lfoot -29.7444 18.902
ltoes -15.3744
7
root 8.1948 15.1232 41.9645 -177.524 -1.04773 -176.957
lowerback 6.85548 2.34203 -7.14417
upperback -1.93974 1.66725 -5.64866
thorax -5.96988 0.762088 -2.10525
lowerneck -5.6212 -1.86862 -8.72246
upperneck 24.9618 -7.23208 14.1069
head 9.51292 -3.75951 5.59552
rclavicle 1.39149e-014 9.54166e-015
rhumerus -36.4285 56.5284 -126.194
rradius 37.4686
rwrist 13.0755
rhand 3.8765 -55.2146
rfingers 7.12502
rthumb 29.2978 -82.9268
lclavicle 1.39149e-014 9.54166e-015
lhumerus -57.5892 -65.6193 144.272
lradius 103.816
lwrist 31.0149
lhand 11.7266 -31.3838
lfingers 7.12502
lthumb 36.762 -5.25823
rfemur -10.4303 10.2607 25.4878
rtibia 29.0097
rfoot -21.9224 -21.3151
rtoes 7.85036
lfemur -12.946 -22.3676 -20.9951
ltibia 33.5237
lfoot -29.6876 18.8365
ltoes -16.4899
8
root 8.19546 15.1195 41.9678 -177.653 -1.02702 -176.956
lowerback 7.04361 2.34308 -7.18405
upperback -1.87955 1.65064 -5.62793
thorax -6.01529 0.756121 -2.06478
lowerneck -5.51423 -1.85213 -8.72959
upperneck 24.836 -7.15212 14.02
head 9.43361 -3.72826 5.57159
rclavicle 2.17669e-014 -7.63333e-014
rhumerus -36.3822 56.5786 -126.141
rradius 37.5083
rwrist 13.1293
rhand 4.36775 -55.1423
rfingers 7.12502
rthumb 29.7667 -82.7716
lclavicle 2.17669e-014 -7.63333e-014
lhumerus -57.1113 -65.6552 143.866
lradius 103.57
lwrist 30.8256
lhand 11.7761 -31.6789
lfingers 7.12502
lthumb 36.809 -5.56531
rfemur -10.3267 10.2594 25.512
rtibia 29.019
rfoot -21.7363 -21.5154
rtoes 7.42918
lfemur -12.8134 -22.2727 -21.0509
ltibia 33.5356
lfoot -29.6993 18.8258
ltoes -15.4859
9
root 8.19675 15.1199 41.9686 -177.689 -0.99591 -176.967
lowerback 7.07594 2.35722 -7.2694
upperback -1.85456 1.65993 -5.61313
thorax -6.01114 0.763282 -2.00357
lowerneck -5.54377 -1.88135 -8.74192
upperneck 24.7678 -7.17466 14.0457
head 9.41995 -3.73241 5.57884
rclavicle 3.86636e-014 -7.31528e-014
rhumerus -36.4642 56.6884 -126.196
rradius 37.5826
rwrist 13.0405
rhand 4.6686 -55.0852
rfingers 7.12502
rthumb 30.0538 -82.6627
lclavicle 3.86636e-014 -7.31528e-014
lhumerus -57.1576 -65.6903 143.923
lradius 103.713
lwrist 31.2282
lhand 11.4895 -31.7614
lfingers 7.12502
lthumb 36.5377 -5.57882
rfemur -10.2992 10.2543 25.5129
rtibia 29.0248
rfoot -21.6122 -21.7048
rtoes 6.71524
lfemur -12.7564 -22.4732 -21.098
ltibia 33.5433
lfoot -29.7468 19.0818
ltoes -13.9715
10
root 8.19731 15.1224 41.9695 -177.651 -1.07154 -176.954
lowerback 7.04258 2.34758 -7.28199
upperback -1.83793 1.64898 -5.62541
thorax -5.97434 0.756624 -2.00609
lowerneck -5.15322 -1.85519 -8.8601
upperneck 24.3432 -7.11996 14.2766
head 9.19849 -3.7102 5.68277
rclavicle -3.27995e-015 -6.36111e-014
rhumerus -36.408 56.6446 -126.127
rradius 37.5728
rwrist 13.0315
rhand 4.64864 -55.0875
rfingers 7.12502
rthumb 30.0348 -82.6685
lclavicle -3.27995e-015 -6.36111e-014
lhumerus -57.2557 -65.9962 143.83
lradius 103.559
lwrist 31.1402
lhand 11.5274 -32.0302
lfingers 7.12502
lthumb 36.5736 -5.85667
rfemur -10.3221 10.2226 25.5276
rtibia 29.0042
rfoot -21.7484 -21.6745
rtoes 6.95717
lfemur -12.8103 -22.7293 -21.0674
ltibia 33.5636
lfoot -29.7774 19.2578
ltoes -14.8471
